<svg xmlns="http://www.w3.org/2000/svg" width="1600" height="900" viewBox="0 0 1600 900">
  <defs>
    <linearGradient id="bg" x1="0" x2="1" y1="0" y2="1">
      <stop offset="0%" stop-color="#f5f7ff" />
      <stop offset="100%" stop-color="#e6ecff" />
    </linearGradient>
    <linearGradient id="panel" x1="0" x2="0" y1="0" y2="1">
      <stop offset="0%" stop-color="#ffffff" />
      <stop offset="100%" stop-color="#f2f5ff" />
    </linearGradient>
    <linearGradient id="panel-dark" x1="0" x2="0" y1="0" y2="1">
      <stop offset="0%" stop-color="#fafafa" />
      <stop offset="100%" stop-color="#eef1ff" />
    </linearGradient>
  </defs>
  <rect width="1600" height="900" fill="url(#bg)" rx="48" />
  <rect x="100" y="80" width="1400" height="740" rx="36" fill="#101828" opacity="0.06" />
  <rect x="120" y="100" width="1360" height="700" rx="32" fill="#fff" stroke="#d6dcff" stroke-width="2" />
  <text x="160" y="170" font-family="'Inter', sans-serif" font-size="34" font-weight="600" fill="#253165">Product Design Document Assistant</text>
  <text x="160" y="215" font-family="'Inter', sans-serif" font-size="20" fill="#5d6b99">Guided chat on the left, live design document on the right.</text>
  <rect x="160" y="260" width="530" height="500" rx="26" fill="url(#panel)" stroke="#d9def7" />
  <rect x="720" y="260" width="700" height="500" rx="26" fill="url(#panel-dark)" stroke="#d9def7" />
  <text x="190" y="308" font-family="'Inter', sans-serif" font-size="22" font-weight="600" fill="#253165">Discovery chat</text>
  <text x="190" y="348" font-family="'Inter', sans-serif" font-size="16" fill="#6574a5">Progress 6/7 sections</text>
  <rect x="190" y="368" width="470" height="12" rx="6" fill="#e5e9ff" />
  <rect x="190" y="368" width="360" height="12" rx="6" fill="#3f6df6" />
  <rect x="190" y="400" width="470" height="126" rx="18" fill="#f5f7ff" stroke="#dbe2ff" />
  <text x="220" y="432" font-family="'Inter', sans-serif" font-size="14" font-weight="600" fill="#3f6df6">Assistant prompt</text>
  <text x="220" y="458" font-family="'Inter', sans-serif" font-size="16" fill="#2f3b63">Outline the major milestones we need to hit to ship the first compelling release.</text>
  <rect x="190" y="544" width="470" height="120" rx="18" fill="#ffffff" stroke="#dbe2ff" />
  <text x="220" y="576" font-family="'Inter', sans-serif" font-size="14" font-weight="600" fill="#7a82b6">Your answer</text>
  <text x="220" y="602" font-family="'Inter', sans-serif" font-size="16" fill="#2f3b63">MVP rituals dashboard – 3 weeks · Private beta onboarding – 5 weeks · Insights layer – 8 weeks.</text>
  <rect x="190" y="650" width="470" height="86" rx="20" fill="#3f6df6" />
  <text x="235" y="702" font-family="'Inter', sans-serif" font-size="20" font-weight="600" fill="#ffffff">Submit answer →</text>
  <text x="750" y="308" font-family="'Inter', sans-serif" font-size="22" font-weight="600" fill="#253165">Design document</text>
  <rect x="750" y="330" width="640" height="380" rx="16" fill="#ffffff" stroke="#dbe2ff" />
  <text x="780" y="368" font-family="'Source Code Pro', monospace" font-size="18" fill="#2f3b63"># Pulseboard design plan</text>
  <text x="780" y="404" font-family="'Source Code Pro', monospace" font-size="16" fill="#52608f">| Key | Details |</text>
  <text x="780" y="432" font-family="'Source Code Pro', monospace" font-size="16" fill="#52608f">| Milestone | Timeline | Notes |</text>
  <text x="780" y="480" font-family="'Source Code Pro', monospace" font-size="16" fill="#2f3b63">## Product Vision</text>
  <text x="780" y="512" font-family="'Source Code Pro', monospace" font-size="16" fill="#52608f">Pulseboard keeps rituals, docs, and updates aligned for remote teams.</text>
  <text x="780" y="552" font-family="'Source Code Pro', monospace" font-size="16" fill="#2f3b63">## Milestones &amp; Roadmap</text>
  <text x="780" y="584" font-family="'Source Code Pro', monospace" font-size="16" fill="#52608f">MVP rituals dashboard → 3 weeks</text>
  <text x="780" y="612" font-family="'Source Code Pro', monospace" font-size="16" fill="#52608f">Private beta onboarding → 5 weeks</text>
  <text x="780" y="640" font-family="'Source Code Pro', monospace" font-size="16" fill="#52608f">Insights &amp; metrics layer → 8 weeks</text>
  <rect x="750" y="724" width="640" height="60" rx="16" fill="#3f6df6" />
  <text x="780" y="760" font-family="'Inter', sans-serif" font-size="20" font-weight="600" fill="#ffffff">Auto-saved locally</text>
</svg>
